<svg xmlns="http://www.w3.org/2000/svg"  viewBox="0 0 64 64" width="48px" height="48px"><path d="M 23.773438 12 C 12.855437 12 12 12.854437 12 23.773438 L 12 40.226562 C 12 51.144563 12.855438 52 23.773438 52 L 40.226562 52 C 51.144563 52 52 51.145563 52 40.226562 L 52 23.773438 C 52 12.854437 51.145563 12 40.226562 12 L 23.773438 12 z M 21.167969 16 L 42.832031 16 C 47.625031 16 48 16.374969 48 21.167969 L 48 42.832031 C 48 47.625031 47.624031 48 42.832031 48 L 21.167969 48 C 16.374969 48 16 47.624031 16 42.832031 L 16 21.167969 C 16 16.374969 16.374969 16 21.167969 16 z M 19.867188 22.421875 L 19.867188 22.859375 L 21.476562 25.054688 C 21.556563 25.150688 21.599609 25.271484 21.599609 25.396484 L 21.599609 38.660156 C 21.599609 38.854156 21.533109 39.044312 21.412109 39.195312 L 19 42.212891 L 19 42.611328 L 25.933594 42.611328 L 25.933594 42.212891 L 23.519531 39.177734 C 23.399531 39.027734 23.332031 38.838484 23.332031 38.646484 L 23.332031 27.140625 L 30.529297 42.611328 L 31.867188 42.611328 L 31.873047 42.59375 L 38.066406 26.703125 L 38.066406 39.757812 C 38.066406 39.898812 38.012109 40.034766 37.912109 40.134766 L 35.466797 42.212891 L 35.466797 42.611328 L 45 42.611328 L 45 42.212891 L 43.421875 40.134766 C 43.321875 40.034766 43.267578 39.899766 43.267578 39.759766 L 43.267578 25.164062 C 43.267578 25.023062 43.321875 24.889063 43.421875 24.789062 L 45 22.859375 L 45 22.421875 L 37.871094 22.421875 L 32.863281 35.275391 L 26.884766 22.421875 L 19.867188 22.421875 z"/></svg>